<svg xmlns="http://www.w3.org/2000/svg" version="1.1" xmlns:xlink="http://www.w3.org/1999/xlink" xmlns:svgjs="http://svgjs.com/svgjs" width="512" height="512" x="0" y="0" viewBox="0 0 6.3499999 6.3500002" style="enable-background:new 0 0 512 512" xml:space="preserve" class=""><g><g xmlns="http://www.w3.org/2000/svg" id="layer1" transform="translate(0 -290.65)"><path id="path1730" d="m1.0578244 291.18015c-.581742 0-1.05885193.47453-1.05885193 1.05626v3.17604c0 .58174.47710993 1.05885 1.05885193 1.05885h.791165c.3531209 0 .3531209-.52968 0-.52968h-.791165c-.2977356 0-.5291667-.23143-.5291667-.52917v-3.17604c0-.29773.2314311-.52916.5291667-.52916h.8263043c.3633814.0321.3937238-.52785.014473-.52762zm3.4685209.5271h.7658444c.2977357 0 .5291667.23143.5291667.52916v3.17604c0 .29774-.231431.52917-.5291667.52917h-.8123528c-.3531209 0-.3531209.52968 0 .52968h.8123528c.5817394 0 1.058852-.47711 1.058852-1.05885v-3.17604c0-.58173-.4771126-1.05626-1.058852-1.05626h-.7785047c-.3396456 0-.3142932.51805.012674.5271zm-2.9393542 2.3828h.4759404c.1006184.41785.4304427.74749.8485268.84749v.47491c-.034525.38438.5616231.38438.5270976 0v-.47491c.418084-.1.7479083-.42964.8485267-.84749h.4759405c.3606641.008.3606641-.53714 0-.52917h-.4754219c-.1001342-.41864-.430403-.74891-.8490453-.84904v-.47543c.00132-.14834-.1193376-.26889-.2676816-.26716-.1451081.003-.2608447.12204-.259416.26716v.47543c-.4186424.10013-.7489112.4304-.8490454.84904h-.4880822c-.3580923 0-.332687.53796.012674.52917zm1.588016-.88263c.3440933 0 .6170163.27292.6170163.61701 0 .3441-.272923.61754-.6170163.61754s-.6170164-.27344-.6170164-.61754c0-.34409.2729231-.61701.6170164-.61701z" font-variant-ligatures="normal" font-variant-position="normal" font-variant-caps="normal" font-variant-numeric="normal" font-variant-alternates="normal" font-feature-settings="normal" text-indent="0" text-align="start" text-decoration-line="none" text-decoration-style="solid" text-decoration-color="rgb(0,0,0)" text-transform="none" text-orientation="mixed" white-space="normal" shape-padding="0" isolation="auto" mix-blend-mode="normal" solid-color="rgb(0,0,0)" solid-opacity="1" vector-effect="none" fill="#ffffff" data-original="#000000" class=""></path></g></g></svg>
